<svg width="34" height="37" viewBox="0 0 34 37" fill="none" xmlns="http://www.w3.org/2000/svg">
<g filter="url(#filter0_bdd_1_652)">
<rect x="1" y="1" width="32" height="32" rx="7" fill="white" fill-opacity="0.1" shape-rendering="crispEdges"/>
<rect x="1.2" y="1.2" width="31.6" height="31.6" rx="6.8" stroke="url(#paint0_linear_1_652)" stroke-width="0.4" shape-rendering="crispEdges"/>
<rect x="1.2" y="1.2" width="31.6" height="31.6" rx="6.8" stroke="url(#paint1_linear_1_652)" stroke-opacity="0.2" stroke-width="0.4" shape-rendering="crispEdges"/>
<g filter="url(#filter1_bii_1_652)">
<path fill-rule="evenodd" clip-rule="evenodd" d="M10.6761 12.5C10.684 12.5 10.692 12.5 10.7 12.5H11.3C11.308 12.5 11.316 12.5 11.3239 12.5C11.5132 12.5 11.6976 12.5 11.8537 12.5127C12.0251 12.5267 12.2274 12.5598 12.431 12.6635C12.7132 12.8073 12.9427 13.0368 13.0865 13.319C13.1902 13.5226 13.2233 13.7249 13.2373 13.8963C13.2501 14.0525 13.25 14.2368 13.25 14.4261C13.25 14.434 13.25 14.442 13.25 14.45L13.25 22.5739C13.25 22.7632 13.25 22.9476 13.2373 23.1037C13.2233 23.2751 13.1902 23.4774 13.0865 23.681C12.9427 23.9632 12.7132 24.1927 12.431 24.3365C12.2274 24.4402 12.0251 24.4733 11.8537 24.4873C11.6976 24.5 11.5132 24.5 11.3239 24.5H10.6761C10.4868 24.5 10.3025 24.5 10.1463 24.4873C9.97489 24.4733 9.77259 24.4402 9.56902 24.3365C9.28677 24.1927 9.0573 23.9632 8.91349 23.681C8.80977 23.4774 8.77672 23.2751 8.76271 23.1037C8.74996 22.9476 8.74998 22.7632 8.75 22.5739L8.75 14.45C8.75 14.442 8.75 14.434 8.75 14.4261C8.74998 14.2368 8.74996 14.0525 8.76271 13.8963C8.77672 13.7249 8.80977 13.5226 8.91349 13.319C9.0573 13.0368 9.28677 12.8073 9.56902 12.6635C9.77259 12.5598 9.97489 12.5267 10.1463 12.5127C10.3025 12.5 10.4868 12.5 10.6761 12.5Z" fill="#ACACAC"/>
<path fill-rule="evenodd" clip-rule="evenodd" d="M16.6761 9.5C16.684 9.5 16.692 9.5 16.7 9.5L17.3 9.5C17.308 9.5 17.316 9.5 17.3239 9.5C17.5132 9.49998 17.6976 9.49996 17.8537 9.51271C18.0251 9.52672 18.2274 9.55977 18.431 9.66349C18.7132 9.8073 18.9427 10.0368 19.0865 10.319C19.1902 10.5226 19.2233 10.7249 19.2373 10.8963C19.25 11.0525 19.25 11.2368 19.25 11.4261C19.25 11.434 19.25 11.442 19.25 11.45L19.25 22.5739C19.25 22.7632 19.25 22.9476 19.2373 23.1037C19.2233 23.2751 19.1902 23.4774 19.0865 23.681C18.9427 23.9632 18.7132 24.1927 18.431 24.3365C18.2274 24.4402 18.0251 24.4733 17.8537 24.4873C17.6976 24.5001 17.5132 24.5 17.3239 24.5H16.6761C16.4868 24.5 16.3024 24.5001 16.1463 24.4873C15.9749 24.4733 15.7726 24.4402 15.569 24.3365C15.2868 24.1927 15.0573 23.9632 14.9135 23.681C14.8098 23.4774 14.7767 23.2751 14.7627 23.1037C14.75 22.9476 14.75 22.7632 14.75 22.5739L14.75 11.45C14.75 11.442 14.75 11.434 14.75 11.4261C14.75 11.2368 14.75 11.0525 14.7627 10.8963C14.7767 10.7249 14.8098 10.5226 14.9135 10.319C15.0573 10.0368 15.2868 9.8073 15.569 9.66349C15.7726 9.55977 15.9749 9.52672 16.1463 9.51271C16.3024 9.49996 16.4868 9.49998 16.6761 9.5Z" fill="#ACACAC"/>
<path fill-rule="evenodd" clip-rule="evenodd" d="M22.6761 15.5C22.684 15.5 22.692 15.5 22.7 15.5H23.3C23.308 15.5 23.316 15.5 23.3239 15.5C23.5132 15.5 23.6976 15.5 23.8537 15.5127C24.0251 15.5267 24.2274 15.5598 24.431 15.6635C24.7132 15.8073 24.9427 16.0368 25.0865 16.319C25.1902 16.5226 25.2233 16.7249 25.2373 16.8963C25.25 17.0524 25.25 17.2368 25.25 17.4261C25.25 17.434 25.25 17.442 25.25 17.45L25.25 22.5739C25.25 22.7632 25.25 22.9476 25.2373 23.1037C25.2233 23.2751 25.1902 23.4774 25.0865 23.681C24.9427 23.9632 24.7132 24.1927 24.431 24.3365C24.2274 24.4402 24.0251 24.4733 23.8537 24.4873C23.6976 24.5 23.5132 24.5 23.3239 24.5H22.6761C22.4868 24.5 22.3025 24.5 22.1463 24.4873C21.9749 24.4733 21.7726 24.4402 21.569 24.3365C21.2868 24.1927 21.0573 23.9632 20.9135 23.681C20.8098 23.4774 20.7767 23.2751 20.7627 23.1037C20.75 22.9476 20.75 22.7632 20.75 22.5739L20.75 17.45C20.75 17.442 20.75 17.434 20.75 17.4261C20.75 17.2368 20.75 17.0525 20.7627 16.8963C20.7767 16.7249 20.8098 16.5226 20.9135 16.319C21.0573 16.0368 21.2868 15.8073 21.569 15.6635C21.7726 15.5598 21.9749 15.5267 22.1463 15.5127C22.3024 15.5 22.4868 15.5 22.6761 15.5Z" fill="#ACACAC"/>
</g>
</g>
<defs>
<filter id="filter0_bdd_1_652" x="-9" y="-9" width="52" height="52" filterUnits="userSpaceOnUse" color-interpolation-filters="sRGB">
<feFlood flood-opacity="0" result="BackgroundImageFix"/>
<feGaussianBlur in="BackgroundImageFix" stdDeviation="5"/>
<feComposite in2="SourceAlpha" operator="in" result="effect1_backgroundBlur_1_652"/>
<feColorMatrix in="SourceAlpha" type="matrix" values="0 0 0 0 0 0 0 0 0 0 0 0 0 0 0 0 0 0 127 0" result="hardAlpha"/>
<feMorphology radius="0.6" operator="dilate" in="SourceAlpha" result="effect2_dropShadow_1_652"/>
<feOffset/>
<feComposite in2="hardAlpha" operator="out"/>
<feColorMatrix type="matrix" values="0 0 0 0 0 0 0 0 0 0 0 0 0 0 0 0 0 0 0.1 0"/>
<feBlend mode="normal" in2="effect1_backgroundBlur_1_652" result="effect2_dropShadow_1_652"/>
<feColorMatrix in="SourceAlpha" type="matrix" values="0 0 0 0 0 0 0 0 0 0 0 0 0 0 0 0 0 0 127 0" result="hardAlpha"/>
<feMorphology radius="1" operator="erode" in="SourceAlpha" result="effect3_dropShadow_1_652"/>
<feOffset dy="3"/>
<feGaussianBlur stdDeviation="1"/>
<feComposite in2="hardAlpha" operator="out"/>
<feColorMatrix type="matrix" values="0 0 0 0 0 0 0 0 0 0 0 0 0 0 0 0 0 0 0.05 0"/>
<feBlend mode="normal" in2="effect2_dropShadow_1_652" result="effect3_dropShadow_1_652"/>
<feBlend mode="normal" in="SourceGraphic" in2="effect3_dropShadow_1_652" result="shape"/>
</filter>
<filter id="filter1_bii_1_652" x="-1.25" y="-0.5" width="36.5" height="35" filterUnits="userSpaceOnUse" color-interpolation-filters="sRGB">
<feFlood flood-opacity="0" result="BackgroundImageFix"/>
<feGaussianBlur in="BackgroundImageFix" stdDeviation="5"/>
<feComposite in2="SourceAlpha" operator="in" result="effect1_backgroundBlur_1_652"/>
<feBlend mode="normal" in="SourceGraphic" in2="effect1_backgroundBlur_1_652" result="shape"/>
<feColorMatrix in="SourceAlpha" type="matrix" values="0 0 0 0 0 0 0 0 0 0 0 0 0 0 0 0 0 0 127 0" result="hardAlpha"/>
<feMorphology radius="0.6" operator="erode" in="SourceAlpha" result="effect2_innerShadow_1_652"/>
<feOffset/>
<feComposite in2="hardAlpha" operator="arithmetic" k2="-1" k3="1"/>
<feColorMatrix type="matrix" values="0 0 0 0 0 0 0 0 0 0 0 0 0 0 0 0 0 0 0.1 0"/>
<feBlend mode="normal" in2="shape" result="effect2_innerShadow_1_652"/>
<feColorMatrix in="SourceAlpha" type="matrix" values="0 0 0 0 0 0 0 0 0 0 0 0 0 0 0 0 0 0 127 0" result="hardAlpha"/>
<feMorphology radius="1" operator="dilate" in="SourceAlpha" result="effect3_innerShadow_1_652"/>
<feOffset dy="3"/>
<feGaussianBlur stdDeviation="1"/>
<feComposite in2="hardAlpha" operator="arithmetic" k2="-1" k3="1"/>
<feColorMatrix type="matrix" values="0 0 0 0 0 0 0 0 0 0 0 0 0 0 0 0 0 0 0.05 0"/>
<feBlend mode="normal" in2="effect2_innerShadow_1_652" result="effect3_innerShadow_1_652"/>
</filter>
<linearGradient id="paint0_linear_1_652" x1="1" y1="-2.66667" x2="4.68175" y2="-2.12603" gradientUnits="userSpaceOnUse">
<stop stop-color="white" stop-opacity="0.5"/>
<stop offset="1" stop-color="white" stop-opacity="0"/>
</linearGradient>
<linearGradient id="paint1_linear_1_652" x1="34.1278" y1="33" x2="27.5467" y2="31.763" gradientUnits="userSpaceOnUse">
<stop stop-color="#8E8E8E"/>
<stop offset="1" stop-color="#666666"/>
</linearGradient>
</defs>
</svg>
