<svg width="34" height="37" viewBox="0 0 34 37" fill="none" xmlns="http://www.w3.org/2000/svg">
<g filter="url(#filter0_bdd_1_640)">
<rect x="1" y="1" width="32" height="32" rx="7" fill="white" fill-opacity="0.1" shape-rendering="crispEdges"/>
<rect x="1.2" y="1.2" width="31.6" height="31.6" rx="6.8" stroke="url(#paint0_linear_1_640)" stroke-width="0.4" shape-rendering="crispEdges"/>
<rect x="1.2" y="1.2" width="31.6" height="31.6" rx="6.8" stroke="url(#paint1_linear_1_640)" stroke-opacity="0.2" stroke-width="0.4" shape-rendering="crispEdges"/>
<g filter="url(#filter1_i_1_640)">
<g filter="url(#filter2_bii_1_640)">
<path d="M23.6667 20.3333C23.6667 19.8731 23.2936 19.5 22.8333 19.5C22.3731 19.5 22 19.8731 22 20.3333V23.3215L20.9226 22.2441C20.5972 21.9186 20.0695 21.9186 19.7441 22.2441C19.4186 22.5695 19.4186 23.0971 19.7441 23.4226L22.2441 25.9226C22.4004 26.0788 22.6123 26.1666 22.8333 26.1666C23.0543 26.1666 23.2663 26.0788 23.4226 25.9226L25.9226 23.4226C26.248 23.0971 26.248 22.5695 25.9226 22.2441C25.5972 21.9186 25.0695 21.9186 24.7441 22.2441L23.6667 23.3215V20.3333Z" fill="#ACACAC"/>
<path d="M19.7011 7.83331H14.2989C13.6281 7.8333 13.0745 7.83329 12.6235 7.87014C12.1551 7.90841 11.7245 7.99055 11.32 8.19663C10.6928 8.5162 10.1829 9.02614 9.86331 9.65335C9.65724 10.0578 9.5751 10.4884 9.53683 10.9568C9.49998 11.4078 9.49999 11.9614 9.5 12.6322V21.3677C9.49999 22.0385 9.49998 22.5922 9.53683 23.0432C9.5751 23.5116 9.65724 23.9422 9.86331 24.3466C10.1829 24.9738 10.6928 25.4838 11.32 25.8033C11.7245 26.0094 12.1551 26.0915 12.6235 26.1298C13.0745 26.1667 13.6281 26.1667 14.2989 26.1666C15.7085 26.1666 17.1182 26.1694 18.5279 26.1688C19.0299 26.1686 19.2809 26.1684 19.3978 26.0686C19.499 25.982 19.5529 25.8519 19.5424 25.7191C19.5304 25.5659 19.3527 25.3882 18.9973 25.0329L18.5656 24.6011C17.5893 23.6248 17.5893 22.0419 18.5656 21.0655C19.0537 20.5774 19.6935 20.3333 20.3333 20.3333C20.3333 18.9526 21.4526 17.8333 22.8333 17.8333C22.946 17.8333 23.0569 17.8408 23.1656 17.8552C23.8127 17.9411 24.1363 17.9841 24.2374 17.9439C24.3583 17.8957 24.3832 17.874 24.4468 17.7604C24.5 17.6655 24.5 17.4365 24.5 16.9785V12.6322C24.5 11.9614 24.5 11.4078 24.4632 10.9568C24.4249 10.4884 24.3428 10.0578 24.1367 9.65335C23.8171 9.02614 23.3072 8.5162 22.68 8.19663C22.2755 7.99055 21.8449 7.90841 21.3765 7.87014C20.9255 7.83329 20.3719 7.8333 19.7011 7.83331Z" fill="#ACACAC"/>
</g>
</g>
</g>
<defs>
<filter id="filter0_bdd_1_640" x="-9" y="-9" width="52" height="52" filterUnits="userSpaceOnUse" color-interpolation-filters="sRGB">
<feFlood flood-opacity="0" result="BackgroundImageFix"/>
<feGaussianBlur in="BackgroundImageFix" stdDeviation="5"/>
<feComposite in2="SourceAlpha" operator="in" result="effect1_backgroundBlur_1_640"/>
<feColorMatrix in="SourceAlpha" type="matrix" values="0 0 0 0 0 0 0 0 0 0 0 0 0 0 0 0 0 0 127 0" result="hardAlpha"/>
<feMorphology radius="0.6" operator="dilate" in="SourceAlpha" result="effect2_dropShadow_1_640"/>
<feOffset/>
<feComposite in2="hardAlpha" operator="out"/>
<feColorMatrix type="matrix" values="0 0 0 0 0 0 0 0 0 0 0 0 0 0 0 0 0 0 0.1 0"/>
<feBlend mode="normal" in2="effect1_backgroundBlur_1_640" result="effect2_dropShadow_1_640"/>
<feColorMatrix in="SourceAlpha" type="matrix" values="0 0 0 0 0 0 0 0 0 0 0 0 0 0 0 0 0 0 127 0" result="hardAlpha"/>
<feMorphology radius="1" operator="erode" in="SourceAlpha" result="effect3_dropShadow_1_640"/>
<feOffset dy="3"/>
<feGaussianBlur stdDeviation="1"/>
<feComposite in2="hardAlpha" operator="out"/>
<feColorMatrix type="matrix" values="0 0 0 0 0 0 0 0 0 0 0 0 0 0 0 0 0 0 0.05 0"/>
<feBlend mode="normal" in2="effect2_dropShadow_1_640" result="effect3_dropShadow_1_640"/>
<feBlend mode="normal" in="SourceGraphic" in2="effect3_dropShadow_1_640" result="shape"/>
</filter>
<filter id="filter1_i_1_640" x="7" y="7" width="20" height="22" filterUnits="userSpaceOnUse" color-interpolation-filters="sRGB">
<feFlood flood-opacity="0" result="BackgroundImageFix"/>
<feBlend mode="normal" in="SourceGraphic" in2="BackgroundImageFix" result="shape"/>
<feColorMatrix in="SourceAlpha" type="matrix" values="0 0 0 0 0 0 0 0 0 0 0 0 0 0 0 0 0 0 127 0" result="hardAlpha"/>
<feOffset dy="2"/>
<feGaussianBlur stdDeviation="1"/>
<feComposite in2="hardAlpha" operator="arithmetic" k2="-1" k3="1"/>
<feColorMatrix type="matrix" values="0 0 0 0 0 0 0 0 0 0 0 0 0 0 0 0 0 0 0.06 0"/>
<feBlend mode="normal" in2="shape" result="effect1_innerShadow_1_640"/>
</filter>
<filter id="filter2_bii_1_640" x="-0.5" y="-2.16669" width="36.6667" height="38.3356" filterUnits="userSpaceOnUse" color-interpolation-filters="sRGB">
<feFlood flood-opacity="0" result="BackgroundImageFix"/>
<feGaussianBlur in="BackgroundImageFix" stdDeviation="5"/>
<feComposite in2="SourceAlpha" operator="in" result="effect1_backgroundBlur_1_640"/>
<feBlend mode="normal" in="SourceGraphic" in2="effect1_backgroundBlur_1_640" result="shape"/>
<feColorMatrix in="SourceAlpha" type="matrix" values="0 0 0 0 0 0 0 0 0 0 0 0 0 0 0 0 0 0 127 0" result="hardAlpha"/>
<feMorphology radius="0.6" operator="erode" in="SourceAlpha" result="effect2_innerShadow_1_640"/>
<feOffset/>
<feComposite in2="hardAlpha" operator="arithmetic" k2="-1" k3="1"/>
<feColorMatrix type="matrix" values="0 0 0 0 0 0 0 0 0 0 0 0 0 0 0 0 0 0 0.1 0"/>
<feBlend mode="normal" in2="shape" result="effect2_innerShadow_1_640"/>
<feColorMatrix in="SourceAlpha" type="matrix" values="0 0 0 0 0 0 0 0 0 0 0 0 0 0 0 0 0 0 127 0" result="hardAlpha"/>
<feMorphology radius="1" operator="dilate" in="SourceAlpha" result="effect3_innerShadow_1_640"/>
<feOffset dy="3"/>
<feGaussianBlur stdDeviation="1"/>
<feComposite in2="hardAlpha" operator="arithmetic" k2="-1" k3="1"/>
<feColorMatrix type="matrix" values="0 0 0 0 0 0 0 0 0 0 0 0 0 0 0 0 0 0 0.05 0"/>
<feBlend mode="normal" in2="effect2_innerShadow_1_640" result="effect3_innerShadow_1_640"/>
</filter>
<linearGradient id="paint0_linear_1_640" x1="1" y1="-2.66667" x2="4.68175" y2="-2.12603" gradientUnits="userSpaceOnUse">
<stop stop-color="white" stop-opacity="0.5"/>
<stop offset="1" stop-color="white" stop-opacity="0"/>
</linearGradient>
<linearGradient id="paint1_linear_1_640" x1="34.1278" y1="33" x2="27.5467" y2="31.763" gradientUnits="userSpaceOnUse">
<stop stop-color="#8E8E8E"/>
<stop offset="1" stop-color="#666666"/>
</linearGradient>
</defs>
</svg>
