<svg width="34" height="37" viewBox="0 0 34 37" fill="none" xmlns="http://www.w3.org/2000/svg">
<g filter="url(#filter0_bdd_1_664)">
<rect x="1" y="1" width="32" height="32" rx="7" fill="white" fill-opacity="0.1" shape-rendering="crispEdges"/>
<rect x="1.2" y="1.2" width="31.6" height="31.6" rx="6.8" stroke="url(#paint0_linear_1_664)" stroke-width="0.4" shape-rendering="crispEdges"/>
<rect x="1.2" y="1.2" width="31.6" height="31.6" rx="6.8" stroke="url(#paint1_linear_1_664)" stroke-opacity="0.2" stroke-width="0.4" shape-rendering="crispEdges"/>
<g filter="url(#filter1_bii_1_664)">
<path d="M14.7473 10.3334C14.0913 10.3329 13.5968 10.3325 13.1463 10.4954C12.75 10.6386 12.389 10.8723 12.0895 11.1796C11.749 11.5289 11.5282 11.9924 11.2352 12.6073C10.8757 13.3605 10.2938 14.5821 9.90301 15.4027C9.768 15.6862 9.70049 15.8279 9.71682 15.9433C9.73109 16.044 9.78432 16.1341 9.86398 16.1925C9.95521 16.2593 10.1066 16.2593 10.4093 16.2593H12.6741C13.4264 16.2593 14.1141 16.7046 14.4505 17.4095C14.5474 17.6125 14.7455 17.7408 14.9622 17.7408H19.0377C19.2543 17.7408 19.4524 17.6125 19.5493 17.4095C19.8858 16.7046 20.5735 16.2593 21.3258 16.2593H23.5906C23.8933 16.2593 24.0447 16.2593 24.1359 16.1925C24.2156 16.1341 24.2688 16.044 24.2831 15.9433C24.2994 15.8279 24.2319 15.6862 24.0969 15.4027C23.7061 14.5821 23.1242 13.3605 22.7647 12.6073C22.4717 11.9925 22.2509 11.5289 21.9104 11.1796C21.6109 10.8723 21.2499 10.6386 20.8536 10.4954C20.4031 10.3325 19.9085 10.3329 19.2526 10.3334H14.7473Z" fill="#ACACAC"/>
<path d="M24.7777 18.9257C24.7778 18.511 24.7778 18.3037 24.7007 18.1452C24.6329 18.0059 24.5247 17.8925 24.3917 17.8215C24.2405 17.7408 24.0425 17.7408 23.6467 17.7408H21.3258C21.1091 17.7408 20.9111 17.869 20.8142 18.072C20.4777 18.7769 19.79 19.2222 19.0377 19.2222H14.9622C14.2099 19.2222 13.5221 18.7769 13.1857 18.072C13.0888 17.869 12.8907 17.7408 12.6741 17.7408H10.3532C9.95736 17.7408 9.75944 17.7408 9.60818 17.8215C9.47516 17.8925 9.36695 18.0059 9.29918 18.1452C9.22211 18.3037 9.22213 18.511 9.22217 18.9256C9.22218 19.0841 9.2222 19.2425 9.2222 19.401C9.22219 19.9972 9.22218 20.4894 9.25344 20.8902C9.28592 21.3066 9.35561 21.6893 9.53046 22.0489C9.80162 22.6064 10.2343 23.0596 10.7665 23.3437C11.1096 23.5269 11.475 23.5999 11.8724 23.6339C12.2551 23.6667 12.7248 23.6667 13.294 23.6666H20.7059C21.2751 23.6667 21.7448 23.6667 22.1275 23.6339C22.5249 23.5999 22.8903 23.5269 23.2334 23.3437C23.7656 23.0596 24.1983 22.6064 24.4694 22.0489C24.6443 21.6893 24.714 21.3066 24.7464 20.8902C24.7777 20.4894 24.7777 19.9973 24.7777 19.401C24.7777 19.2425 24.7777 19.0841 24.7777 18.9257Z" fill="#ACACAC"/>
</g>
</g>
<defs>
<filter id="filter0_bdd_1_664" x="-9" y="-9" width="52" height="52" filterUnits="userSpaceOnUse" color-interpolation-filters="sRGB">
<feFlood flood-opacity="0" result="BackgroundImageFix"/>
<feGaussianBlur in="BackgroundImageFix" stdDeviation="5"/>
<feComposite in2="SourceAlpha" operator="in" result="effect1_backgroundBlur_1_664"/>
<feColorMatrix in="SourceAlpha" type="matrix" values="0 0 0 0 0 0 0 0 0 0 0 0 0 0 0 0 0 0 127 0" result="hardAlpha"/>
<feMorphology radius="0.6" operator="dilate" in="SourceAlpha" result="effect2_dropShadow_1_664"/>
<feOffset/>
<feComposite in2="hardAlpha" operator="out"/>
<feColorMatrix type="matrix" values="0 0 0 0 0 0 0 0 0 0 0 0 0 0 0 0 0 0 0.1 0"/>
<feBlend mode="normal" in2="effect1_backgroundBlur_1_664" result="effect2_dropShadow_1_664"/>
<feColorMatrix in="SourceAlpha" type="matrix" values="0 0 0 0 0 0 0 0 0 0 0 0 0 0 0 0 0 0 127 0" result="hardAlpha"/>
<feMorphology radius="1" operator="erode" in="SourceAlpha" result="effect3_dropShadow_1_664"/>
<feOffset dy="3"/>
<feGaussianBlur stdDeviation="1"/>
<feComposite in2="hardAlpha" operator="out"/>
<feColorMatrix type="matrix" values="0 0 0 0 0 0 0 0 0 0 0 0 0 0 0 0 0 0 0.05 0"/>
<feBlend mode="normal" in2="effect2_dropShadow_1_664" result="effect3_dropShadow_1_664"/>
<feBlend mode="normal" in="SourceGraphic" in2="effect3_dropShadow_1_664" result="shape"/>
</filter>
<filter id="filter1_bii_1_664" x="-0.777832" y="0.333313" width="35.5555" height="33.3333" filterUnits="userSpaceOnUse" color-interpolation-filters="sRGB">
<feFlood flood-opacity="0" result="BackgroundImageFix"/>
<feGaussianBlur in="BackgroundImageFix" stdDeviation="5"/>
<feComposite in2="SourceAlpha" operator="in" result="effect1_backgroundBlur_1_664"/>
<feBlend mode="normal" in="SourceGraphic" in2="effect1_backgroundBlur_1_664" result="shape"/>
<feColorMatrix in="SourceAlpha" type="matrix" values="0 0 0 0 0 0 0 0 0 0 0 0 0 0 0 0 0 0 127 0" result="hardAlpha"/>
<feMorphology radius="0.6" operator="erode" in="SourceAlpha" result="effect2_innerShadow_1_664"/>
<feOffset/>
<feComposite in2="hardAlpha" operator="arithmetic" k2="-1" k3="1"/>
<feColorMatrix type="matrix" values="0 0 0 0 0 0 0 0 0 0 0 0 0 0 0 0 0 0 0.1 0"/>
<feBlend mode="normal" in2="shape" result="effect2_innerShadow_1_664"/>
<feColorMatrix in="SourceAlpha" type="matrix" values="0 0 0 0 0 0 0 0 0 0 0 0 0 0 0 0 0 0 127 0" result="hardAlpha"/>
<feMorphology radius="1" operator="dilate" in="SourceAlpha" result="effect3_innerShadow_1_664"/>
<feOffset dy="3"/>
<feGaussianBlur stdDeviation="1"/>
<feComposite in2="hardAlpha" operator="arithmetic" k2="-1" k3="1"/>
<feColorMatrix type="matrix" values="0 0 0 0 0 0 0 0 0 0 0 0 0 0 0 0 0 0 0.05 0"/>
<feBlend mode="normal" in2="effect2_innerShadow_1_664" result="effect3_innerShadow_1_664"/>
</filter>
<linearGradient id="paint0_linear_1_664" x1="1" y1="-2.66667" x2="4.68175" y2="-2.12603" gradientUnits="userSpaceOnUse">
<stop stop-color="white" stop-opacity="0.5"/>
<stop offset="1" stop-color="white" stop-opacity="0"/>
</linearGradient>
<linearGradient id="paint1_linear_1_664" x1="34.1278" y1="33" x2="27.5467" y2="31.763" gradientUnits="userSpaceOnUse">
<stop stop-color="#8E8E8E"/>
<stop offset="1" stop-color="#666666"/>
</linearGradient>
</defs>
</svg>
