<svg width="130" height="16" viewBox="0 0 130 16" fill="none" xmlns="http://www.w3.org/2000/svg">
<path d="M55.2852 13.993C54.6521 13.993 54.0869 13.8322 53.5898 13.5105C53.0974 13.1841 52.7082 12.7203 52.4221 12.1189C52.1407 11.5128 52 10.7902 52 9.95105C52 9.10256 52.143 8.37762 52.4291 7.77622C52.7199 7.17483 53.1138 6.71562 53.6109 6.3986C54.1127 6.08158 54.6779 5.92308 55.3063 5.92308C55.7893 5.92308 56.1786 6.00233 56.474 6.16084C56.7742 6.31935 57.0063 6.50816 57.1705 6.72727C57.3393 6.94172 57.4683 7.13054 57.5574 7.29371H57.6558V6.02098H59.1894V13.8392H57.6629V12.6154H57.5574C57.4683 12.7832 57.3369 12.9767 57.1634 13.1958C56.9899 13.4103 56.7531 13.5967 56.4529 13.7552C56.1528 13.9138 55.7635 13.993 55.2852 13.993ZM55.6439 12.6853C56.0848 12.6853 56.4553 12.5688 56.7554 12.3357C57.0602 12.1026 57.29 11.7809 57.4448 11.3706C57.5996 10.9557 57.6769 10.4779 57.6769 9.93706C57.6769 9.39161 57.5996 8.91841 57.4448 8.51748C57.29 8.11189 57.0602 7.7972 56.7554 7.57343C56.4553 7.34499 56.0848 7.23077 55.6439 7.23077C55.189 7.23077 54.8092 7.34965 54.5043 7.58741C54.1995 7.82051 53.9697 8.14219 53.8149 8.55245C53.6602 8.95804 53.5828 9.41958 53.5828 9.93706C53.5828 10.4545 53.6602 10.9207 53.8149 11.3357C53.9697 11.7506 54.1995 12.0793 54.5043 12.3217C54.8139 12.5641 55.1937 12.6853 55.6439 12.6853Z" fill="white" fill-opacity="0.6"/>
<path d="M61.2716 13.8392V6.02098H62.8193V13.8392H61.2716ZM62.0525 4.82517C61.7852 4.82517 61.5554 4.7366 61.3631 4.55944C61.1755 4.38228 61.0817 4.16783 61.0817 3.91608C61.0817 3.65967 61.1755 3.44289 61.3631 3.26573C61.5554 3.08858 61.7852 3 62.0525 3C62.3198 3 62.5496 3.08858 62.7419 3.26573C62.9342 3.44289 63.0303 3.65967 63.0303 3.91608C63.0303 4.16783 62.9342 4.38228 62.7419 4.55944C62.5496 4.7366 62.3198 4.82517 62.0525 4.82517Z" fill="white" fill-opacity="0.6"/>
<path d="M71.6618 13.993C71.0287 13.993 70.4636 13.8322 69.9665 13.5105C69.474 13.1841 69.0848 12.7203 68.7987 12.1189C68.5173 11.5128 68.3766 10.7902 68.3766 9.95105C68.3766 9.10256 68.5197 8.37762 68.8057 7.77622C69.0965 7.17483 69.4904 6.71562 69.9876 6.3986C70.4894 6.08158 71.0545 5.92308 71.6829 5.92308C72.1659 5.92308 72.5552 6.00233 72.8507 6.16084C73.1508 6.31935 73.3829 6.50816 73.5471 6.72727C73.7159 6.94172 73.8449 7.13054 73.934 7.29371H74.0325V6.02098H75.566V13.8392H74.0395V12.6154H73.934C73.8449 12.7832 73.7136 12.9767 73.54 13.1958C73.3665 13.4103 73.1297 13.5967 72.8295 13.7552C72.5294 13.9138 72.1402 13.993 71.6618 13.993ZM72.0206 12.6853C72.4614 12.6853 72.8319 12.5688 73.132 12.3357C73.4369 12.1026 73.6667 11.7809 73.8214 11.3706C73.9762 10.9557 74.0536 10.4779 74.0536 9.93706C74.0536 9.39161 73.9762 8.91841 73.8214 8.51748C73.6667 8.11189 73.4369 7.7972 73.132 7.57343C72.8319 7.34499 72.4614 7.23077 72.0206 7.23077C71.5657 7.23077 71.1858 7.34965 70.881 7.58741C70.5761 7.82051 70.3463 8.14219 70.1916 8.55245C70.0368 8.95804 69.9594 9.41958 69.9594 9.93706C69.9594 10.4545 70.0368 10.9207 70.1916 11.3357C70.3463 11.7506 70.5761 12.0793 70.881 12.3217C71.1905 12.5641 71.5703 12.6853 72.0206 12.6853Z" fill="white" fill-opacity="0.6"/>
<path d="M80.4692 14C79.9017 14 79.3952 13.9184 78.9497 13.7552C78.5088 13.5921 78.1454 13.352 77.8593 13.035C77.5779 12.7133 77.3903 12.3217 77.2965 11.8601L78.7527 11.5594C78.8606 11.965 79.0622 12.2657 79.3577 12.4615C79.6531 12.6573 80.0283 12.7552 80.4832 12.7552C80.9803 12.7552 81.3766 12.6527 81.6721 12.4476C81.9675 12.2378 82.1153 11.9883 82.1153 11.6993C82.1153 11.4476 82.0238 11.2401 81.8409 11.0769C81.6627 10.9138 81.386 10.7925 81.0108 10.7133L79.6883 10.4126C78.9567 10.2494 78.4127 9.98834 78.0563 9.62937C77.6999 9.2704 77.5216 8.81119 77.5216 8.25175C77.5216 7.78555 77.653 7.37762 77.9156 7.02797C78.1782 6.67832 78.537 6.40793 78.9919 6.21678C79.4468 6.02098 79.972 5.92308 80.5676 5.92308C81.1351 5.92308 81.6205 6.00466 82.0238 6.16783C82.4271 6.331 82.7531 6.55944 83.0016 6.85315C83.2549 7.14685 83.4354 7.48718 83.5433 7.87413L82.1575 8.17483C82.059 7.89977 81.8878 7.65967 81.6439 7.45455C81.4001 7.24476 81.046 7.13986 80.5817 7.13986C80.1549 7.13986 79.7985 7.23543 79.5124 7.42657C79.2264 7.61772 79.0833 7.86014 79.0833 8.15385C79.0833 8.41492 79.1771 8.62704 79.3647 8.79021C79.557 8.94872 79.8689 9.07692 80.3003 9.17483L81.5666 9.45455C82.2935 9.61772 82.8328 9.87413 83.1845 10.2238C83.5363 10.5734 83.7121 11.021 83.7121 11.5664C83.7121 12.042 83.5738 12.4639 83.2971 12.8322C83.0251 13.1958 82.6452 13.4825 82.1575 13.6923C81.6744 13.8974 81.1117 14 80.4692 14Z" fill="white" fill-opacity="0.6"/>
<path d="M88.2354 14C87.6679 14 87.1614 13.9184 86.7159 13.7552C86.2751 13.5921 85.9116 13.352 85.6255 13.035C85.3442 12.7133 85.1566 12.3217 85.0628 11.8601L86.5189 11.5594C86.6268 11.965 86.8285 12.2657 87.1239 12.4615C87.4194 12.6573 87.7946 12.7552 88.2495 12.7552C88.7466 12.7552 89.1429 12.6527 89.4383 12.4476C89.7338 12.2378 89.8815 11.9883 89.8815 11.6993C89.8815 11.4476 89.79 11.2401 89.6071 11.0769C89.4289 10.9138 89.1522 10.7925 88.7771 10.7133L87.4545 10.4126C86.7229 10.2494 86.1789 9.98834 85.8225 9.62937C85.4661 9.2704 85.2879 8.81119 85.2879 8.25175C85.2879 7.78555 85.4192 7.37762 85.6818 7.02797C85.9444 6.67832 86.3032 6.40793 86.7581 6.21678C87.213 6.02098 87.7383 5.92308 88.3339 5.92308C88.9013 5.92308 89.3867 6.00466 89.79 6.16783C90.1934 6.331 90.5193 6.55944 90.7679 6.85315C91.0211 7.14685 91.2017 7.48718 91.3095 7.87413L89.9237 8.17483C89.8252 7.89977 89.654 7.65967 89.4102 7.45455C89.1663 7.24476 88.8122 7.13986 88.3479 7.13986C87.9212 7.13986 87.5648 7.23543 87.2787 7.42657C86.9926 7.61772 86.8496 7.86014 86.8496 8.15385C86.8496 8.41492 86.9434 8.62704 87.131 8.79021C87.3232 8.94872 87.6351 9.07692 88.0666 9.17483L89.3328 9.45455C90.0597 9.61772 90.599 9.87413 90.9508 10.2238C91.3025 10.5734 91.4784 11.021 91.4784 11.5664C91.4784 12.042 91.34 12.4639 91.0633 12.8322C90.7913 13.1958 90.4114 13.4825 89.9237 13.6923C89.4407 13.8974 88.8779 14 88.2354 14Z" fill="white" fill-opacity="0.6"/>
<path d="M93.1807 13.8392V6.02098H94.7284V13.8392H93.1807ZM93.9616 4.82517C93.6943 4.82517 93.4645 4.7366 93.2722 4.55944C93.0846 4.38228 92.9908 4.16783 92.9908 3.91608C92.9908 3.65967 93.0846 3.44289 93.2722 3.26573C93.4645 3.08858 93.6943 3 93.9616 3C94.2289 3 94.4587 3.08858 94.651 3.26573C94.8433 3.44289 94.9394 3.65967 94.9394 3.91608C94.9394 4.16783 94.8433 4.38228 94.651 4.55944C94.4587 4.7366 94.2289 4.82517 93.9616 4.82517Z" fill="white" fill-opacity="0.6"/>
<path d="M99.6315 14C99.064 14 98.5575 13.9184 98.112 13.7552C97.6712 13.5921 97.3077 13.352 97.0216 13.035C96.7403 12.7133 96.5527 12.3217 96.4589 11.8601L97.915 11.5594C98.0229 11.965 98.2246 12.2657 98.52 12.4615C98.8155 12.6573 99.1907 12.7552 99.6456 12.7552C100.143 12.7552 100.539 12.6527 100.834 12.4476C101.13 12.2378 101.278 11.9883 101.278 11.6993C101.278 11.4476 101.186 11.2401 101.003 11.0769C100.825 10.9138 100.548 10.7925 100.173 10.7133L98.8507 10.4126C98.119 10.2494 97.575 9.98834 97.2186 9.62937C96.8622 9.2704 96.684 8.81119 96.684 8.25175C96.684 7.78555 96.8153 7.37762 97.0779 7.02797C97.3405 6.67832 97.6993 6.40793 98.1542 6.21678C98.6091 6.02098 99.1344 5.92308 99.73 5.92308C100.297 5.92308 100.783 6.00466 101.186 6.16783C101.589 6.331 101.915 6.55944 102.164 6.85315C102.417 7.14685 102.598 7.48718 102.706 7.87413L101.32 8.17483C101.221 7.89977 101.05 7.65967 100.806 7.45455C100.562 7.24476 100.208 7.13986 99.744 7.13986C99.3173 7.13986 98.9609 7.23543 98.6748 7.42657C98.3887 7.61772 98.2457 7.86014 98.2457 8.15385C98.2457 8.41492 98.3395 8.62704 98.5271 8.79021C98.7193 8.94872 99.0312 9.07692 99.4627 9.17483L100.729 9.45455C101.456 9.61772 101.995 9.87413 102.347 10.2238C102.699 10.5734 102.874 11.021 102.874 11.5664C102.874 12.042 102.736 12.4639 102.459 12.8322C102.187 13.1958 101.808 13.4825 101.32 13.6923C100.837 13.8974 100.274 14 99.6315 14Z" fill="white" fill-opacity="0.6"/>
<path d="M107.693 6.02098V7.27273H105.308V6.02098H107.693ZM104.577 4.16084H106.124V11.7273C106.124 12.0396 106.19 12.2704 106.321 12.4196C106.453 12.5641 106.673 12.6364 106.983 12.6364C107.062 12.6364 107.168 12.627 107.299 12.6084C107.431 12.5897 107.543 12.5711 107.637 12.5524L107.911 13.7832C107.742 13.8392 107.564 13.8788 107.377 13.9021C107.189 13.9301 107.006 13.9441 106.828 13.9441C106.11 13.9441 105.555 13.7622 105.161 13.3986C104.771 13.0303 104.577 12.5152 104.577 11.8531V4.16084Z" fill="white" fill-opacity="0.6"/>
<path d="M112.012 13.993C111.379 13.993 110.814 13.8322 110.317 13.5105C109.825 13.1841 109.435 12.7203 109.149 12.1189C108.868 11.5128 108.727 10.7902 108.727 9.95105C108.727 9.10256 108.87 8.37762 109.156 7.77622C109.447 7.17483 109.841 6.71562 110.338 6.3986C110.84 6.08158 111.405 5.92308 112.034 5.92308C112.517 5.92308 112.906 6.00233 113.201 6.16084C113.501 6.31935 113.734 6.50816 113.898 6.72727C114.067 6.94172 114.196 7.13054 114.285 7.29371H114.383V6.02098H115.917V13.8392H114.39V12.6154H114.285C114.196 12.7832 114.064 12.9767 113.891 13.1958C113.717 13.4103 113.48 13.5967 113.18 13.7552C112.88 13.9138 112.491 13.993 112.012 13.993ZM112.371 12.6853C112.812 12.6853 113.183 12.5688 113.483 12.3357C113.788 12.1026 114.017 11.7809 114.172 11.3706C114.327 10.9557 114.404 10.4779 114.404 9.93706C114.404 9.39161 114.327 8.91841 114.172 8.51748C114.017 8.11189 113.788 7.7972 113.483 7.57343C113.183 7.34499 112.812 7.23077 112.371 7.23077C111.916 7.23077 111.536 7.34965 111.232 7.58741C110.927 7.82051 110.697 8.14219 110.542 8.55245C110.387 8.95804 110.31 9.41958 110.31 9.93706C110.31 10.4545 110.387 10.9207 110.542 11.3357C110.697 11.7506 110.927 12.0793 111.232 12.3217C111.541 12.5641 111.921 12.6853 112.371 12.6853Z" fill="white" fill-opacity="0.6"/>
<path d="M119.547 9.20979V13.8392H117.999V6.02098H119.476L119.49 7.93706H119.328C119.558 7.23776 119.891 6.72727 120.327 6.40559C120.764 6.08392 121.291 5.92308 121.91 5.92308C122.445 5.92308 122.911 6.03497 123.31 6.25874C123.709 6.48252 124.021 6.81352 124.246 7.25175C124.471 7.68531 124.583 8.22611 124.583 8.87413V13.8392H123.036V9.06294C123.036 8.49883 122.888 8.05827 122.593 7.74126C122.297 7.42424 121.891 7.26573 121.376 7.26573C121.029 7.26573 120.717 7.34266 120.44 7.4965C120.163 7.64569 119.945 7.8648 119.786 8.15385C119.626 8.44289 119.547 8.79487 119.547 9.20979Z" fill="white" fill-opacity="0.6"/>
<path d="M129.782 6.02098V7.27273H127.397V6.02098H129.782ZM126.666 4.16084H128.213V11.7273C128.213 12.0396 128.279 12.2704 128.41 12.4196C128.541 12.5641 128.762 12.6364 129.071 12.6364C129.151 12.6364 129.257 12.627 129.388 12.6084C129.519 12.5897 129.632 12.5711 129.726 12.5524L130 13.7832C129.831 13.8392 129.653 13.8788 129.465 13.9021C129.278 13.9301 129.095 13.9441 128.917 13.9441C128.199 13.9441 127.643 13.7622 127.249 13.3986C126.86 13.0303 126.666 12.5152 126.666 11.8531V4.16084Z" fill="white" fill-opacity="0.6"/>
<line x1="43.5" y1="1" x2="43.5" y2="16" stroke="white" stroke-opacity="0.3"/>
<path d="M0 0.890231C0 0.39857 0.39857 0 0.890231 0H9L8.42505 0.751856C7.37147 2.12961 5.62977 2.79368 3.92637 2.46709L0.809314 1.86945C0.339603 1.7794 0 1.3685 0 0.890231Z" fill="white"/>
<path d="M4.64258 14.2021C3.72852 14.2021 2.92871 13.9941 2.24316 13.5781C1.56348 13.1562 1.0332 12.5703 0.652344 11.8203C0.277344 11.0645 0.0898438 10.1885 0.0898438 9.19238C0.0898438 8.18457 0.277344 7.30273 0.652344 6.54688C1.0332 5.79102 1.56348 5.20508 2.24316 4.78906C2.92871 4.36719 3.72852 4.15625 4.64258 4.15625C5.5625 4.15625 6.3623 4.36719 7.04199 4.78906C7.72754 5.20508 8.25781 5.79102 8.63281 6.54688C9.01367 7.30273 9.2041 8.18457 9.2041 9.19238C9.2041 10.1885 9.01367 11.0645 8.63281 11.8203C8.25781 12.5703 7.72754 13.1562 7.04199 13.5781C6.3623 13.9941 5.5625 14.2021 4.64258 14.2021ZM4.64258 12.5762C5.22266 12.5762 5.70605 12.4268 6.09277 12.1279C6.48535 11.8232 6.77832 11.416 6.97168 10.9062C7.16504 10.3906 7.26172 9.81934 7.26172 9.19238C7.26172 8.55371 7.16504 7.97949 6.97168 7.46973C6.77832 6.9541 6.48535 6.54395 6.09277 6.23926C5.70605 5.93457 5.22266 5.78223 4.64258 5.78223C4.0625 5.78223 3.5791 5.93457 3.19238 6.23926C2.81152 6.54395 2.52441 6.9541 2.33105 7.46973C2.1377 7.97949 2.04102 8.55371 2.04102 9.19238C2.04102 9.81934 2.1377 10.3906 2.33105 10.9062C2.52441 11.416 2.81152 11.8232 3.19238 12.1279C3.5791 12.4268 4.0625 12.5762 4.64258 12.5762Z" fill="white"/>
<path d="M15.1104 4.29688V5.86133H12.1748V4.29688H15.1104ZM11.2432 1.91504H13.168V11.3896C13.168 11.7705 13.2471 12.0488 13.4053 12.2246C13.5635 12.4004 13.833 12.4883 14.2139 12.4883C14.3252 12.4883 14.4629 12.4795 14.627 12.4619C14.791 12.4385 14.9316 12.418 15.0488 12.4004L15.3213 13.9473C15.1221 14 14.9082 14.0381 14.6797 14.0615C14.4512 14.085 14.2256 14.0967 14.0029 14.0967C13.1182 14.0967 12.4355 13.8799 11.9551 13.4463C11.4805 13.0068 11.2432 12.3799 11.2432 11.5654V1.91504Z" fill="white"/>
<path d="M20.2783 14.2109C19.5635 14.2109 18.9277 14.1055 18.3711 13.8945C17.8145 13.6836 17.3604 13.373 17.0088 12.9629C16.6572 12.5469 16.4287 12.04 16.3232 11.4424L18.1514 11.1436C18.2686 11.6533 18.5059 12.0342 18.8633 12.2861C19.2266 12.5322 19.6982 12.6553 20.2783 12.6553C20.8936 12.6553 21.3828 12.5293 21.7461 12.2773C22.1094 12.0195 22.291 11.709 22.291 11.3457C22.291 11.0293 22.1738 10.7715 21.9395 10.5723C21.7109 10.3672 21.3711 10.2148 20.9199 10.1152L19.2852 9.75488C18.3828 9.5498 17.709 9.22461 17.2637 8.7793C16.8184 8.32812 16.5957 7.75098 16.5957 7.04785C16.5957 6.46777 16.7539 5.96094 17.0703 5.52734C17.3926 5.09375 17.835 4.75684 18.3975 4.5166C18.96 4.27637 19.6074 4.15625 20.3398 4.15625C21.0488 4.15625 21.6582 4.26465 22.168 4.48145C22.6836 4.69238 23.0967 4.99121 23.4072 5.37793C23.7236 5.76465 23.9375 6.21582 24.0488 6.73145L22.2998 7.03027C22.2061 6.66113 22.0039 6.3418 21.6934 6.07227C21.3828 5.80273 20.9404 5.66797 20.3662 5.66797C19.833 5.66797 19.3906 5.78809 19.0391 6.02832C18.6934 6.26855 18.5205 6.57617 18.5205 6.95117C18.5205 7.27344 18.6406 7.53418 18.8809 7.7334C19.1211 7.93262 19.4961 8.09082 20.0059 8.20801L21.5791 8.55957C22.4932 8.76465 23.167 9.08398 23.6006 9.51758C24.04 9.95117 24.2598 10.5107 24.2598 11.1963C24.2598 11.7881 24.0898 12.3125 23.75 12.7695C23.4102 13.2207 22.9414 13.5752 22.3438 13.833C21.7461 14.085 21.0576 14.2109 20.2783 14.2109Z" fill="white"/>
<path d="M30.3594 14.167C29.5039 14.167 28.7715 14.0146 28.1621 13.71C27.5527 13.4053 27.084 12.9629 26.7559 12.3828C26.4336 11.8027 26.2725 11.1055 26.2725 10.291V4.29688H28.1973V10.1855C28.1973 10.6895 28.2793 11.1113 28.4434 11.4512C28.6074 11.791 28.8506 12.0488 29.1729 12.2246C29.4951 12.4004 29.8906 12.4883 30.3594 12.4883C30.834 12.4883 31.2324 12.4004 31.5547 12.2246C31.877 12.0488 32.1201 11.791 32.2842 11.4512C32.4482 11.1113 32.5303 10.6895 32.5303 10.1855V4.29688H34.4551V10.291C34.4551 11.1055 34.291 11.8027 33.9629 12.3828C33.6406 12.9629 33.1748 13.4053 32.5654 13.71C31.9561 14.0146 31.2207 14.167 30.3594 14.167Z" fill="white"/>
</svg>
