<svg width="35" height="15" viewBox="0 0 35 15" fill="none" xmlns="http://www.w3.org/2000/svg">
<path d="M0 0.890231C0 0.39857 0.39857 0 0.890231 0H9L8.42505 0.751856C7.37147 2.12961 5.62977 2.79368 3.92637 2.46709L0.809314 1.86945C0.339603 1.7794 0 1.3685 0 0.890231Z" fill="white"/>
<path d="M4.64258 14.2021C3.72852 14.2021 2.92871 13.9941 2.24316 13.5781C1.56348 13.1562 1.0332 12.5703 0.652344 11.8203C0.277344 11.0645 0.0898438 10.1885 0.0898438 9.19238C0.0898438 8.18457 0.277344 7.30273 0.652344 6.54688C1.0332 5.79102 1.56348 5.20508 2.24316 4.78906C2.92871 4.36719 3.72852 4.15625 4.64258 4.15625C5.5625 4.15625 6.3623 4.36719 7.04199 4.78906C7.72754 5.20508 8.25781 5.79102 8.63281 6.54688C9.01367 7.30273 9.2041 8.18457 9.2041 9.19238C9.2041 10.1885 9.01367 11.0645 8.63281 11.8203C8.25781 12.5703 7.72754 13.1562 7.04199 13.5781C6.3623 13.9941 5.5625 14.2021 4.64258 14.2021ZM4.64258 12.5762C5.22266 12.5762 5.70605 12.4268 6.09277 12.1279C6.48535 11.8232 6.77832 11.416 6.97168 10.9062C7.16504 10.3906 7.26172 9.81934 7.26172 9.19238C7.26172 8.55371 7.16504 7.97949 6.97168 7.46973C6.77832 6.9541 6.48535 6.54395 6.09277 6.23926C5.70605 5.93457 5.22266 5.78223 4.64258 5.78223C4.0625 5.78223 3.5791 5.93457 3.19238 6.23926C2.81152 6.54395 2.52441 6.9541 2.33105 7.46973C2.1377 7.97949 2.04102 8.55371 2.04102 9.19238C2.04102 9.81934 2.1377 10.3906 2.33105 10.9062C2.52441 11.416 2.81152 11.8232 3.19238 12.1279C3.5791 12.4268 4.0625 12.5762 4.64258 12.5762Z" fill="white"/>
<path d="M15.1104 4.29688V5.86133H12.1748V4.29688H15.1104ZM11.2432 1.91504H13.168V11.3896C13.168 11.7705 13.2471 12.0488 13.4053 12.2246C13.5635 12.4004 13.833 12.4883 14.2139 12.4883C14.3252 12.4883 14.4629 12.4795 14.627 12.4619C14.791 12.4385 14.9316 12.418 15.0488 12.4004L15.3213 13.9473C15.1221 14 14.9082 14.0381 14.6797 14.0615C14.4512 14.085 14.2256 14.0967 14.0029 14.0967C13.1182 14.0967 12.4355 13.8799 11.9551 13.4463C11.4805 13.0068 11.2432 12.3799 11.2432 11.5654V1.91504Z" fill="white"/>
<path d="M20.2783 14.2109C19.5635 14.2109 18.9277 14.1055 18.3711 13.8945C17.8145 13.6836 17.3604 13.373 17.0088 12.9629C16.6572 12.5469 16.4287 12.04 16.3232 11.4424L18.1514 11.1436C18.2686 11.6533 18.5059 12.0342 18.8633 12.2861C19.2266 12.5322 19.6982 12.6553 20.2783 12.6553C20.8936 12.6553 21.3828 12.5293 21.7461 12.2773C22.1094 12.0195 22.291 11.709 22.291 11.3457C22.291 11.0293 22.1738 10.7715 21.9395 10.5723C21.7109 10.3672 21.3711 10.2148 20.9199 10.1152L19.2852 9.75488C18.3828 9.5498 17.709 9.22461 17.2637 8.7793C16.8184 8.32812 16.5957 7.75098 16.5957 7.04785C16.5957 6.46777 16.7539 5.96094 17.0703 5.52734C17.3926 5.09375 17.835 4.75684 18.3975 4.5166C18.96 4.27637 19.6074 4.15625 20.3398 4.15625C21.0488 4.15625 21.6582 4.26465 22.168 4.48145C22.6836 4.69238 23.0967 4.99121 23.4072 5.37793C23.7236 5.76465 23.9375 6.21582 24.0488 6.73145L22.2998 7.03027C22.2061 6.66113 22.0039 6.3418 21.6934 6.07227C21.3828 5.80273 20.9404 5.66797 20.3662 5.66797C19.833 5.66797 19.3906 5.78809 19.0391 6.02832C18.6934 6.26855 18.5205 6.57617 18.5205 6.95117C18.5205 7.27344 18.6406 7.53418 18.8809 7.7334C19.1211 7.93262 19.4961 8.09082 20.0059 8.20801L21.5791 8.55957C22.4932 8.76465 23.167 9.08398 23.6006 9.51758C24.04 9.95117 24.2598 10.5107 24.2598 11.1963C24.2598 11.7881 24.0898 12.3125 23.75 12.7695C23.4102 13.2207 22.9414 13.5752 22.3438 13.833C21.7461 14.085 21.0576 14.2109 20.2783 14.2109Z" fill="white"/>
<path d="M30.3594 14.167C29.5039 14.167 28.7715 14.0146 28.1621 13.71C27.5527 13.4053 27.084 12.9629 26.7559 12.3828C26.4336 11.8027 26.2725 11.1055 26.2725 10.291V4.29688H28.1973V10.1855C28.1973 10.6895 28.2793 11.1113 28.4434 11.4512C28.6074 11.791 28.8506 12.0488 29.1729 12.2246C29.4951 12.4004 29.8906 12.4883 30.3594 12.4883C30.834 12.4883 31.2324 12.4004 31.5547 12.2246C31.877 12.0488 32.1201 11.791 32.2842 11.4512C32.4482 11.1113 32.5303 10.6895 32.5303 10.1855V4.29688H34.4551V10.291C34.4551 11.1055 34.291 11.8027 33.9629 12.3828C33.6406 12.9629 33.1748 13.4053 32.5654 13.71C31.9561 14.0146 31.2207 14.167 30.3594 14.167Z" fill="white"/>
</svg>
