<svg width="522" height="26" viewBox="0 0 522 26" fill="none" xmlns="http://www.w3.org/2000/svg">
<path fill-rule="evenodd" clip-rule="evenodd" d="M477.287 5.78025C477.287 6.82192 476.435 7.66107 475.376 7.66107C474.317 7.66107 473.465 6.82192 473.465 5.78025C473.465 4.73856 474.288 3.89941 475.376 3.89941C476.464 3.92835 477.287 4.76749 477.287 5.78025ZM469.405 9.57048C469.405 9.74414 469.405 10.0335 469.405 10.0335C469.405 10.0335 468.493 8.87598 466.552 8.87598C463.347 8.87598 460.848 11.2778 460.848 14.6053C460.848 17.904 463.317 20.3346 466.552 20.3346C468.523 20.3346 469.405 19.1483 469.405 19.1483V19.6402C469.405 19.8716 469.581 20.0453 469.816 20.0453H472.198V9.16534C472.198 9.16534 470.022 9.16534 469.816 9.16534C469.581 9.16534 469.405 9.36791 469.405 9.57048ZM469.404 16.5453C468.963 17.1818 468.081 17.7315 467.022 17.7315C465.14 17.7315 463.699 16.5742 463.699 14.6065C463.699 12.6389 465.14 11.4814 467.022 11.4814C468.052 11.4814 468.992 12.0601 469.404 12.6678V16.5453ZM473.965 9.16602H476.788V20.0459H473.965V9.16602ZM516.132 8.87667C514.191 8.87667 513.28 10.0342 513.28 10.0342V3.92871H510.457V20.046C510.457 20.046 512.633 20.046 512.839 20.046C513.074 20.046 513.251 19.8434 513.251 19.6409V19.149C513.251 19.149 514.162 20.3353 516.103 20.3353C519.308 20.3353 521.808 17.9047 521.808 14.606C521.808 11.3074 519.308 8.87667 516.132 8.87667ZM515.663 17.7023C514.575 17.7023 513.723 17.1525 513.281 16.5159V12.6386C513.723 12.0598 514.664 11.4521 515.663 11.4521C517.545 11.4521 518.986 12.6095 518.986 14.5773C518.986 16.5449 517.545 17.7023 515.663 17.7023ZM508.987 13.5925V20.0742H506.164V13.9109C506.164 12.1169 505.576 11.3935 503.988 11.3935C503.135 11.3935 502.253 11.8275 501.694 12.4641V20.0453H498.871V9.16534H501.106C501.342 9.16534 501.518 9.36791 501.518 9.57048V10.0335C502.341 9.19425 503.429 8.87598 504.518 8.87598C505.752 8.87598 506.782 9.2233 507.605 9.91766C508.605 10.7279 508.987 11.7695 508.987 13.5925ZM492.019 8.87667C490.079 8.87667 489.167 10.0342 489.167 10.0342V3.92871H486.344V20.046C486.344 20.046 488.52 20.046 488.726 20.046C488.961 20.046 489.137 19.8434 489.137 19.6409V19.149C489.137 19.149 490.049 20.3353 491.989 20.3353C495.195 20.3353 497.694 17.9047 497.694 14.606C497.724 11.3074 495.225 8.87667 492.019 8.87667ZM491.549 17.7023C490.461 17.7023 489.609 17.1525 489.168 16.5159V12.6386C489.609 12.0598 490.55 11.4521 491.549 11.4521C493.432 11.4521 494.873 12.6095 494.873 14.5773C494.873 16.5449 493.432 17.7023 491.549 17.7023ZM483.903 8.87598C484.756 8.87598 485.197 9.02073 485.197 9.02073V11.596C485.197 11.596 482.845 10.8147 481.374 12.4641V20.0742H478.551V9.16534C478.551 9.16534 480.727 9.16534 480.933 9.16534C481.168 9.16534 481.344 9.36791 481.344 9.57048V10.0335C481.874 9.42587 483.021 8.87598 483.903 8.87598ZM453.282 18.6517C453.154 18.349 453.026 18.021 452.899 17.7435C452.694 17.2895 452.49 16.8606 452.311 16.4571L452.285 16.4318C450.522 12.6479 448.631 8.81355 446.638 5.02963L446.561 4.87829C446.357 4.4999 446.152 4.09628 445.948 3.69266C445.693 3.23858 445.437 2.75929 445.028 2.30523C444.21 1.29618 443.035 0.741211 441.783 0.741211C440.505 0.741211 439.356 1.29618 438.512 2.25477C438.129 2.70885 437.848 3.18814 437.592 3.6422C437.388 4.04582 437.183 4.44944 436.979 4.82783L436.902 4.97919C434.935 8.76307 433.018 12.5975 431.255 16.3814L431.23 16.4318C431.05 16.8354 430.846 17.2643 430.642 17.7183C430.514 17.9958 430.386 18.2985 430.259 18.6265C429.926 19.5598 429.824 20.4428 429.952 21.3509C430.233 23.2429 431.511 24.8321 433.274 25.5384C433.938 25.8159 434.628 25.942 435.343 25.942C435.548 25.942 435.804 25.9168 436.008 25.8915C436.851 25.7907 437.72 25.5132 438.563 25.0339C439.611 24.4536 440.607 23.6212 441.732 22.4104C442.856 23.6212 443.878 24.4536 444.9 25.0339C445.744 25.5132 446.613 25.7907 447.455 25.8915C447.66 25.9168 447.916 25.942 448.12 25.942C448.835 25.942 449.551 25.8159 450.19 25.5384C451.979 24.8321 453.231 23.2177 453.512 21.3509C453.716 20.468 453.614 19.585 453.282 18.6517ZM441.781 19.6981C440.456 18.0332 439.597 16.4662 439.303 15.144C439.18 14.581 439.155 14.0912 439.229 13.6505C439.278 13.2588 439.425 12.916 439.622 12.6223C440.088 11.9612 440.873 11.5449 441.781 11.5449C442.69 11.5449 443.5 11.9367 443.942 12.6223C444.138 12.916 444.285 13.2588 444.335 13.6505C444.408 14.0912 444.384 14.6054 444.261 15.144C443.966 16.4417 443.107 18.0086 441.781 19.6981ZM451.742 20.9667C451.567 22.2484 450.693 23.3578 449.469 23.8507C448.869 24.0972 448.219 24.1712 447.57 24.0972C446.945 24.0234 446.321 23.8261 445.671 23.4564C444.772 22.9633 443.872 22.1992 442.823 21.0652C444.472 19.0685 445.471 17.2444 445.846 15.6175C446.021 14.8533 446.046 14.1631 445.971 13.5222C445.871 12.906 445.646 12.339 445.297 11.846C444.522 10.7367 443.223 10.0958 441.774 10.0958C440.325 10.0958 439.026 10.7614 438.251 11.846C437.902 12.339 437.676 12.906 437.577 13.5222C437.477 14.1631 437.501 14.878 437.701 15.6175C438.077 17.2444 439.101 19.0932 440.725 21.0899C439.701 22.2238 438.775 22.988 437.876 23.481C437.227 23.8507 436.602 24.048 435.977 24.122C435.303 24.1958 434.654 24.0972 434.079 23.8754C432.855 23.3824 431.98 22.2732 431.805 20.9913C431.73 20.375 431.781 19.7588 432.031 19.0685C432.105 18.822 432.23 18.5756 432.355 18.2797C432.53 17.8853 432.73 17.4663 432.93 17.0472L432.955 16.998C434.679 13.325 436.527 9.57812 438.451 5.92987L438.526 5.78197C438.726 5.41221 438.926 5.01781 439.125 4.64805C439.325 4.25364 439.55 3.88389 439.825 3.56344C440.35 2.97182 441.049 2.65137 441.824 2.65137C442.599 2.65137 443.298 2.97182 443.822 3.56344C444.097 3.88389 444.322 4.25364 444.522 4.64805C444.722 5.01781 444.922 5.41221 445.122 5.78197L445.197 5.92987C447.095 9.6028 448.944 13.3496 450.668 17.0226V17.0472C450.867 17.4417 451.042 17.8853 451.242 18.2797C451.367 18.5756 451.492 18.822 451.567 19.0685C451.767 19.7094 451.842 20.3257 451.742 20.9667Z" fill="white" fill-opacity="0.3"/>
<path fill-rule="evenodd" clip-rule="evenodd" d="M324.684 22.9691C323.072 22.9027 321.752 22.4448 320.721 21.5945C320.525 21.4321 320.055 20.945 319.898 20.7396C319.48 20.1938 319.195 19.6627 319.006 19.0734C318.421 17.2593 318.722 14.8788 319.865 12.2664C320.843 10.0297 322.352 7.81141 324.986 4.73909C325.372 4.287 326.527 2.96484 326.536 2.96484C326.538 2.96484 326.475 3.07801 326.396 3.21581C325.712 4.40589 325.126 5.8077 324.806 7.02127C324.293 8.96857 324.355 10.6397 324.988 11.9354C325.424 12.8282 326.171 13.6014 327.011 14.0288C328.482 14.7769 330.636 14.8387 333.266 14.2099C333.447 14.1664 342.421 11.6943 353.207 8.71611C363.995 5.73779 372.822 3.30291 372.823 3.30491C372.826 3.30749 347.763 14.4377 334.751 20.2119C332.69 21.1261 332.14 21.357 331.172 21.71C328.695 22.6124 326.477 23.0431 324.684 22.9691Z" fill="white" fill-opacity="0.3"/>
<path fill-rule="evenodd" clip-rule="evenodd" d="M12.6004 25.2008C19.5595 25.2008 25.2008 19.5595 25.2008 12.6004C25.2008 5.64139 19.5595 0 12.6004 0C5.64139 0 0 5.64139 0 12.6004C0 19.5595 5.64139 25.2008 12.6004 25.2008ZM12.5941 14.7768C14.9619 11.6102 15.0664 9.69116 12.5941 6.30078C10.0747 9.76353 10.3994 11.5989 12.5941 14.7768ZM11.4679 18.9019C11.8442 15.04 10.9201 13.3287 6.98645 11.5615C6.63535 15.7516 7.887 17.1876 11.4679 18.9019ZM13.7334 18.9019C13.357 15.04 14.2811 13.3287 18.2148 11.5615C18.5659 15.7516 17.3142 17.1876 13.7334 18.9019Z" fill="white" fill-opacity="0.3"/>
<path fill-rule="evenodd" clip-rule="evenodd" d="M132.55 8.04873C132.476 8.21199 132.371 8.28596 132.149 8.28596H123.861V11.9166H130.779C130.899 11.9166 130.943 11.9757 130.899 12.0943L130.14 13.9616C130.065 14.1247 129.962 14.1984 129.738 14.1984H125.675C124.352 14.1984 123.861 14.5985 123.861 15.4878V18.0514H133.22C133.339 18.0514 133.383 18.1107 133.339 18.2292L132.55 20.1708C132.476 20.3335 132.371 20.4077 132.149 20.4077H121.926C121.137 20.4077 120.84 20.141 120.84 19.5481V6.93733C120.84 6.24091 121.227 5.92969 122.253 5.92969H133.22C133.339 5.92969 133.383 5.98918 133.339 6.10742L132.55 8.04873ZM92.6759 14.4061V6.28549C92.6759 6.0485 92.796 5.92977 93.0339 5.92977H95.7564V14.5394C95.7564 19.0743 92.8553 20.6599 88.6438 20.6599C84.433 20.6599 81.5312 19.0743 81.5312 14.5394V6.28549C81.5312 6.0485 81.6498 5.92977 81.8885 5.92977H84.6117V14.4061C84.6117 17.118 85.8169 18.244 88.6438 18.244C91.4715 18.244 92.6759 17.118 92.6759 14.4061ZM109.991 18.0805H104.617V15.4278C104.617 14.5386 105.109 14.1387 106.434 14.1387H109.991C111.702 14.1387 112.178 14.7906 112.178 16.1245C112.178 17.4581 111.702 18.0805 109.991 18.0805ZM104.617 8.25684H109.425C111.033 8.25684 111.479 8.85965 111.479 10.1091C111.479 11.3588 111.033 11.9617 109.425 11.9617H104.617V8.25684ZM112.847 12.776C114.036 12.1536 114.527 10.983 114.527 9.60486C114.527 6.40388 111.909 5.92969 109.201 5.92969H103.01C101.984 5.92969 101.598 6.24091 101.598 6.93733V19.5481C101.598 20.141 101.894 20.4077 102.684 20.4077H110.302C113.174 20.4077 115.228 19.2963 115.228 16.4066C115.228 14.6729 114.483 13.2057 112.847 12.776ZM141.605 12.6429H146.664C148.554 12.6429 148.972 11.9317 148.972 10.4499C148.972 8.98277 148.554 8.25684 146.664 8.25684H141.605V12.6429ZM149.091 14.5839L152.349 20.1558C152.409 20.2445 152.409 20.4077 152.216 20.4077H149.448C149.225 20.4077 149.135 20.3188 149.046 20.1708L146.1 14.895H143.422C142.097 14.895 141.606 15.2953 141.606 16.1845V20.4077H138.943C138.705 20.4077 138.586 20.289 138.586 20.0521V6.93733C138.586 6.24091 138.972 5.92969 139.999 5.92969H146.22C149.835 5.92969 152.022 6.87834 152.022 10.3902C152.022 13.1022 150.713 14.1691 149.091 14.5839Z" fill="white" fill-opacity="0.3"/>
<path fill-rule="evenodd" clip-rule="evenodd" d="M212.714 11.2271C212.714 10.6289 213.188 10.3988 213.962 10.3988C215.077 10.3988 216.469 10.7516 217.584 11.3806V7.77587C216.377 7.26973 215.169 7.07031 213.962 7.07031C210.99 7.07031 209.02 8.6963 209.02 11.4113C209.02 15.6446 214.571 14.9698 214.571 16.7952C214.571 17.5006 213.993 17.7307 213.167 17.7307C211.961 17.7307 210.412 17.2091 209.185 16.5037V20.1542C210.536 20.7678 211.909 21.0285 213.167 21.0285C216.211 21.0285 218.306 19.4487 218.306 16.703C218.286 12.1321 212.714 12.945 212.714 11.2271ZM222.6 4.00293L219.03 4.80049L219.02 17.0868C219.02 19.357 220.64 21.0288 222.806 21.0288C224.003 21.0288 224.88 20.7987 225.366 20.5227V17.4088C224.901 17.6084 222.59 18.3138 222.59 16.0437V10.5985H225.366V7.3314H222.59L222.6 4.00293ZM229.904 8.46642L229.677 7.33143H226.52V20.7527H230.172V11.6569C231.029 10.4759 232.494 10.6907 232.948 10.8593V7.33143C232.484 7.14733 230.771 6.80987 229.904 8.46642ZM233.836 7.33105H237.509V20.7523H233.836V7.33105ZM233.836 6.16566L237.509 5.33737V2.22363L233.836 3.03661V6.16555V6.16566ZM245.145 7.07031C243.71 7.07031 242.782 7.77587 242.276 8.26677L242.08 7.31578H238.871V25.2005L242.524 24.3877L242.534 20.0468C243.06 20.4456 243.834 21.0131 245.125 21.0131C247.745 21.0131 250.129 18.8044 250.129 13.9421C250.108 9.49383 247.704 7.07031 245.145 7.07031ZM244.267 17.6397C243.401 17.6397 242.885 17.3176 242.534 16.9188L242.523 11.2281C242.905 10.7833 243.431 10.4766 244.267 10.4766C245.588 10.4766 246.517 12.041 246.517 14.0504C246.517 16.1058 245.609 17.6397 244.267 17.6397ZM261.643 14.0954C261.643 10.1688 259.827 7.07031 256.37 7.07031C252.882 7.07031 250.777 10.1688 250.777 14.0648C250.777 18.6817 253.264 21.0131 256.834 21.0131C258.567 21.0131 259.888 20.599 260.879 20.0161V16.9484C259.888 17.47 258.743 17.7922 257.298 17.7922C255.885 17.7922 254.626 17.2706 254.461 15.4606H261.611C261.611 15.2611 261.643 14.4635 261.643 14.0954ZM254.422 12.6385C254.422 10.9053 255.433 10.1843 256.351 10.1843C257.249 10.1843 258.198 10.9053 258.198 12.6385H254.422Z" fill="white" fill-opacity="0.3"/>
</svg>
